<svg xmlns="http://www.w3.org/2000/svg" viewBox="0 0 3222.63 1153.11"><defs><style>.cls-1{fill-rule:evenodd;}</style></defs><g id="Capa_2" data-name="Capa 2"><g id="Logo"><path id="Mark" class="cls-1" d="M586.81,0C262.32,0,0,264.25,0,591.17,0,852.49,168.08,1073.69,401.24,1152c29.16,5.88,39.83-12.72,39.83-28.38,0-13.7-1-60.68-1-109.62-163.23,35.24-197.23-70.48-197.23-70.48-26.23-68.51-65.1-86.12-65.1-86.12-53.43-36.21,3.89-36.21,3.89-36.21,59.27,3.91,90.37,60.68,90.37,60.68,52.45,90,137,64.6,171,48.93,4.85-38.17,20.41-64.59,36.92-79.27-130.19-13.71-267.17-64.6-267.17-291.68,0-64.59,23.3-117.44,60.23-158.55-5.83-14.68-26.24-75.37,5.83-156.6,0,0,49.55-15.67,161.27,60.68a559.39,559.39,0,0,1,293.41,0C845.24,229,894.78,244.69,894.78,244.69c32.07,81.23,11.65,141.92,5.83,156.6,37.9,41.11,60.24,94,60.24,158.55,0,227.08-137,277-268.15,291.68,21.38,18.59,39.83,53.82,39.83,109.62,0,79.27-1,142.9-1,162.46,0,15.67,10.69,34.27,39.83,28.4,233.17-78.32,401.25-299.51,401.25-560.83C1173.61,264.25,910.33,0,586.81,0Z"/><g id="Type"><path d="M1713.62,540.17H1556.56a7.34,7.34,0,0,0-7.34,7.34V624.3a7.35,7.35,0,0,0,7.34,7.35h61.27v95.4s-13.76,4.69-51.79,4.69c-44.87,0-107.55-16.4-107.55-154.24s65.27-156,126.55-156c53,0,75.89,9.33,90.43,13.84,4.57,1.39,8.8-3.16,8.8-7.21l17.52-74.19a6.82,6.82,0,0,0-2.81-5.73c-5.9-4.22-41.93-24.37-132.94-24.37-104.85,0-212.4,44.6-212.4,259s123.14,246.39,226.9,246.39c85.91,0,138-36.71,138-36.71,2.15-1.19,2.38-4.19,2.38-5.56V547.51A7.34,7.34,0,0,0,1713.62,540.17Z"/><path d="M2523,349.53a7.31,7.31,0,0,0-7.29-7.38h-88.43a7.34,7.34,0,0,0-7.32,7.38s0,170.89,0,170.89H2282.15V349.53a7.32,7.32,0,0,0-7.3-7.38h-88.42a7.34,7.34,0,0,0-7.31,7.38V812.27a7.36,7.36,0,0,0,7.31,7.4h88.42a7.34,7.34,0,0,0,7.3-7.4V614.34H2420s-.24,197.91-.24,197.93a7.37,7.37,0,0,0,7.32,7.4h88.64a7.34,7.34,0,0,0,7.3-7.4Z"/><path d="M1880.49,410.25c0-31.84-25.53-57.57-57-57.57s-57,25.73-57,57.57,25.55,57.61,57,57.61S1880.49,442.06,1880.49,410.25Z"/><path d="M1874.17,714.66V501.05a7.35,7.35,0,0,0-7.32-7.37H1778.7c-4,0-7.66,4.17-7.66,8.23v306c0,9,5.6,11.66,12.85,11.66h79.43c8.71,0,10.85-4.28,10.85-11.81Z"/><path d="M2859.09,494.38h-87.75a7.36,7.36,0,0,0-7.3,7.4V728.67S2741.74,745,2710.1,745s-40-14.35-40-45.34V501.78a7.36,7.36,0,0,0-7.3-7.4H2573.7a7.37,7.37,0,0,0-7.31,7.4V714.63c0,92,51.29,114.54,121.85,114.54,57.88,0,104.55-32,104.55-32S2795,814,2796,816a7.74,7.74,0,0,0,6.46,4l56.66-.25a7.37,7.37,0,0,0,7.31-7.38l0-310.63A7.37,7.37,0,0,0,2859.09,494.38Z"/><path d="M3098.93,484c-49.84,0-83.74,22.24-83.74,22.24V349.53a7.32,7.32,0,0,0-7.29-7.38h-88.68a7.33,7.33,0,0,0-7.31,7.38V812.27a7.36,7.36,0,0,0,7.32,7.4h61.52c2.77,0,4.87-1.43,6.42-3.93s3.74-21.33,3.74-21.33,36.26,34.36,104.91,34.36c80.59,0,126.81-40.88,126.81-183.51S3148.81,484,3098.93,484ZM3064.32,744.7c-30.44-.92-51.08-14.74-51.08-14.74V583.42s20.37-12.48,45.36-14.71c31.6-2.83,62.05,6.71,62.05,82.1C3120.65,730.3,3106.9,746,3064.32,744.7Z"/><path d="M2128.32,493.64H2062s-.1-87.61-.1-87.63c0-3.32-1.71-5-5.54-5H1966c-3.52,0-5.4,1.55-5.4,4.93v90.55s-45.3,10.94-48.37,11.82a7.36,7.36,0,0,0-5.29,7.06v56.9a7.35,7.35,0,0,0,7.31,7.4h46.35v136.9c0,101.69,71.33,111.68,119.46,111.68,22,0,48.3-7.06,52.64-8.67a6.83,6.83,0,0,0,4.16-6.63l.07-62.6a7.46,7.46,0,0,0-7.33-7.39c-3.87,0-13.76,1.57-23.94,1.57-32.58,0-43.62-15.15-43.62-34.76V579.69h66.33a7.35,7.35,0,0,0,7.32-7.4V501A7.33,7.33,0,0,0,2128.32,493.64Z"/></g></g></g></svg>