<svg xmlns="http://www.w3.org/2000/svg" viewBox="0 0 3486.98 991.44"><defs><style>.cls-1{fill:#fff;}</style></defs><g id="Capa_2" data-name="Capa 2"><g id="Layer_1" data-name="Layer 1"><path d="M0,199.91H131.83V673.46H364.26v111H0Z"/><path d="M547.22,242.42c0,36.42-26.89,65.91-71.11,65.91-41.64,0-68.52-29.49-68.52-65.91,0-37.29,27.76-65.91,70.25-65.91S546.36,205.13,547.22,242.42ZM411.06,784.47V360.37H542.89v424.1Z"/><path d="M621.78,495.66c0-52.9-1.74-97.12-3.47-135.29H732.79l6.08,59h2.6c17.35-27.76,59.84-68.53,131-68.53,86.73,0,151.78,58.12,151.78,183V784.47H892.37v-235c0-54.64-19.07-91.93-66.77-91.93-36.43,0-58.11,25.15-67.66,49.43-3.46,8.67-4.32,20.81-4.32,33V784.47H621.78Z"/><path d="M1234.93,539h1.73A572.14,572.14,0,0,1,1267,487.86l85.86-127.49h158.71L1359.82,532.09l173.45,252.38H1371.1L1267.88,610.14l-33,41.63v132.7H1103.1V168.7h131.83Z"/><path d="M1635.6,614.48c3.47,54.64,58.1,80.66,119.69,80.66,45.1,0,81.52-6.07,117.09-18.21l17.34,89.33c-43.37,18.21-96.27,26.88-153.51,26.88-144,0-226.37-83.25-226.37-215.95,0-107.54,66.79-226.37,214.22-226.37,137,0,189.08,106.69,189.08,211.63a312.21,312.21,0,0,1-4.35,52Zm155.24-90.2c0-32.09-13.87-85.86-74.58-85.86-55.51,0-78.06,51.18-81.53,85.86Z"/><path d="M2376.24,168.7V657.85c0,47.69,1.73,98,3.47,126.62h-117.1l-5.19-61.58h-2.6c-26,46.83-78.06,71.13-132.7,71.13-100.6,0-181.26-85.87-181.26-217.7C1940,433.22,2029.32,350,2130.79,350c52.91,0,92.8,19.08,111.88,47.7h1.73v-229ZM2244.4,539.9c0-6.95,0-16.48-1.73-24.29-7.8-34.68-36.42-64.17-77.18-64.17-60.72,0-91.08,53.77-91.08,120.55,0,72,35.57,117.08,90.21,117.08,38.16,0,69.38-26,77.18-63.31a170.43,170.43,0,0,0,2.6-30.35Z"/><path d="M3487,892.33c0,54.74-44.22,99.11-98.79,99.11H2605.92c-54.57,0-98.79-44.37-98.79-99.11V99.12c0-54.74,44.22-99.12,98.79-99.12h782.27C3442.76,0,3487,44.38,3487,99.12Z"/><path class="cls-1" d="M2825.87,242.42c0,36.42-26.88,65.91-71.11,65.91-41.62,0-68.51-29.49-68.51-65.91,0-37.29,27.75-65.91,70.24-65.91S2825,205.13,2825.87,242.42ZM2689.72,784.47V360.37h131.82v424.1Z"/><path class="cls-1" d="M2900.44,495.66c0-52.9-1.73-97.12-3.46-135.29h114.47l6.08,59h2.6c17.34-27.76,59.84-68.53,131-68.53,86.73,0,151.77,58.12,151.77,183V784.47H3171v-235c0-54.64-19.09-91.93-66.79-91.93-36.43,0-58.1,25.15-67.64,49.43-3.47,8.67-4.35,20.81-4.35,33V784.47H2900.44Z"/></g></g></svg>